<svg width="48" height="48" viewBox="0 0 48 48" fill="none" xmlns="http://www.w3.org/2000/svg">
<path d="M19.4498 22.6464C19.4498 22.6464 23.709 22.3228 23.709 17.2263C23.709 12.134 20.8203 9.62377 16.4048 9.62377L1.27856 9.59985V37.7417H16.7566C16.7566 37.7417 24.4956 37.9866 24.4956 29.2992C24.4956 29.2992 25.0641 22.6464 19.4498 22.6464ZM6.90694 13.8211H14.646C14.646 13.8211 17.2941 13.8648 17.2941 17.2981C17.2941 20.8566 14.646 20.8566 14.646 20.8566H6.90694V13.8211ZM15.3495 33.5204H6.90694V25.0779H15.3495C15.3495 25.0779 19.5708 25.1215 19.5708 29.2992C19.5708 33.4768 15.9574 33.5204 15.3495 33.5204Z" fill="#111111"/>
<path d="M36.4562 16.636C25.8847 16.636 25.903 27.1892 25.903 27.1892C25.903 27.1892 25.1994 37.7424 36.4562 37.7424C36.4562 37.7424 46.3058 37.7424 46.3058 29.2998H40.6775C40.6775 29.2998 40.6775 33.5211 36.4562 33.5211C36.4562 33.5211 32.2349 33.5211 32.2349 27.8927C32.2349 27.8927 43.4916 27.8927 46.3058 27.8927C46.3058 25.0785 46.3058 16.636 36.4562 16.636ZM32.2349 25.0785C32.2349 25.0785 32.142 20.8573 36.4562 20.8573C40.7689 20.8573 40.6775 25.0785 40.6775 25.0785H32.2349Z" fill="#111111"/>
<path d="M42.0849 12.4143H30.8281V15.2285H42.0849V12.4143Z" fill="#111111"/>
</svg>
