<svg width="30" height="30" viewBox="0 0 30 30" fill="none" xmlns="http://www.w3.org/2000/svg">
<path d="M26.9965 18.8802C26.9935 18.1007 26.7505 17.34 26.299 16.6965C25.8474 16.053 25.208 15.5562 24.4635 15.2704L26.9565 6.18109C27.0085 5.98752 27.014 5.78484 26.9724 5.58888C26.9307 5.39292 26.8432 5.20898 26.7165 5.05142C26.587 4.90379 26.4252 4.78633 26.2429 4.70768C26.0606 4.62903 25.8626 4.59119 25.6633 4.59696H7.39935L6.95941 2.96088C6.88293 2.68419 6.71462 2.43991 6.48072 2.26612C6.24682 2.09232 5.96046 1.99875 5.66627 2.00001H3V4.59696H4.63976L7.94594 16.6208C8.02406 16.9041 8.19835 17.1533 8.44043 17.3277C8.6825 17.5022 8.9781 17.5917 9.27907 17.5817H22.997C23.3506 17.5817 23.6897 17.7185 23.9397 17.962C24.1897 18.2055 24.3302 18.5358 24.3302 18.8802C24.3302 19.2245 24.1897 19.5548 23.9397 19.7983C23.6897 20.0418 23.3506 20.1786 22.997 20.1786H5.66627C5.3127 20.1786 4.97361 20.3154 4.7236 20.5589C4.47359 20.8024 4.33314 21.1327 4.33314 21.4771C4.33314 21.8215 4.47359 22.1517 4.7236 22.3953C4.97361 22.6388 5.3127 22.7756 5.66627 22.7756H7.23937C7.02012 23.3639 6.94967 23.9951 7.03398 24.6156C7.11829 25.2362 7.35488 25.8278 7.72373 26.3403C8.09257 26.8529 8.5828 27.2714 9.15289 27.5603C9.72299 27.8492 10.3562 28 10.9988 28C11.6415 28 12.2746 27.8492 12.8447 27.5603C13.4148 27.2714 13.9051 26.8529 14.2739 26.3403C14.6428 25.8278 14.8793 25.2362 14.9637 24.6156C15.048 23.9951 14.9775 23.3639 14.7583 22.7756H17.9045C17.7049 23.3113 17.6284 23.8832 17.6805 24.4509C17.7326 25.0186 17.9119 25.5682 18.2058 26.061C18.4997 26.5538 18.9011 26.9778 19.3816 27.3031C19.8621 27.6283 20.4101 27.8469 20.9868 27.9434C21.5635 28.0399 22.1549 28.012 22.7193 27.8616C23.2837 27.7112 23.8074 27.4421 24.2533 27.0731C24.6993 26.7041 25.0567 26.2443 25.3003 25.7261C25.5439 25.2079 25.6679 24.644 25.6633 24.074C25.6608 23.4032 25.4769 22.7449 25.1301 22.1653C25.7001 21.8152 26.1701 21.3305 26.4964 20.7562C26.8227 20.1819 26.9947 19.5365 26.9965 18.8802V18.8802ZM21.7839 14.9847H10.3323L8.11924 7.1939H23.9302L21.7839 14.9847ZM10.9988 25.3725C10.7351 25.3725 10.4774 25.2964 10.2582 25.1537C10.0389 25.011 9.86806 24.8082 9.76716 24.5709C9.66626 24.3337 9.63986 24.0726 9.6913 23.8207C9.74274 23.5688 9.86971 23.3375 10.0561 23.1559C10.2426 22.9743 10.4801 22.8506 10.7387 22.8005C10.9973 22.7504 11.2654 22.7761 11.509 22.8744C11.7526 22.9727 11.9608 23.1391 12.1073 23.3526C12.2538 23.5662 12.332 23.8172 12.332 24.074C12.332 24.4184 12.1915 24.7487 11.9415 24.9922C11.6915 25.2357 11.3524 25.3725 10.9988 25.3725ZM21.6639 25.3725C21.4002 25.3725 21.1425 25.2964 20.9233 25.1537C20.704 25.011 20.5332 24.8082 20.4323 24.5709C20.3314 24.3337 20.305 24.0726 20.3564 23.8207C20.4078 23.5688 20.5348 23.3375 20.7212 23.1559C20.9077 22.9743 21.1452 22.8506 21.4038 22.8005C21.6624 22.7504 21.9305 22.7761 22.1741 22.8744C22.4177 22.9727 22.6259 23.1391 22.7724 23.3526C22.9189 23.5662 22.997 23.8172 22.997 24.074C22.997 24.4184 22.8566 24.7487 22.6066 24.9922C22.3566 25.2357 22.0175 25.3725 21.6639 25.3725Z" fill="black"/>
</svg>
