<svg width="50" height="50" viewBox="0 0 50 50" fill="none" xmlns="http://www.w3.org/2000/svg">
<path d="M16.5852 24.9993C16.5852 20.4756 20.2535 16.8075 24.78 16.8075C29.3064 16.8075 32.9767 20.4756 32.9767 24.9993C32.9767 29.523 29.3064 33.1912 24.78 33.1912C20.2535 33.1912 16.5852 29.523 16.5852 24.9993ZM12.1542 24.9993C12.1542 31.9684 17.8067 37.6176 24.78 37.6176C31.7532 37.6176 37.4058 31.9684 37.4058 24.9993C37.4058 18.0303 31.7532 12.3811 24.78 12.3811C17.8067 12.3811 12.1542 18.0303 12.1542 24.9993ZM34.955 11.8808C34.9548 12.464 35.1276 13.0342 35.4516 13.5193C35.7756 14.0043 36.2363 14.3825 36.7754 14.6059C37.3144 14.8293 37.9077 14.8879 38.4801 14.7744C39.0525 14.6608 39.5783 14.3802 39.9911 13.9679C40.404 13.5557 40.6852 13.0304 40.7993 12.4584C40.9133 11.8865 40.8551 11.2935 40.632 10.7546C40.4089 10.2157 40.0309 9.75499 39.5458 9.43077C39.0607 9.10656 38.4903 8.93338 37.9068 8.93315H37.9056C37.1234 8.93351 36.3733 9.24415 35.82 9.79683C35.2668 10.3495 34.9557 11.099 34.955 11.8808ZM14.8463 45.0016C12.449 44.8925 11.146 44.4935 10.2801 44.1563C9.13216 43.7097 8.31307 43.1777 7.45189 42.3182C6.59071 41.4587 6.05763 40.6409 5.61268 39.4936C5.27514 38.6286 4.87582 37.326 4.76685 34.9302C4.64764 32.34 4.62384 31.5619 4.62384 24.9995C4.62384 18.4372 4.64961 17.6613 4.76685 15.0689C4.87602 12.673 5.27828 11.373 5.61268 10.5055C6.0596 9.35817 6.59189 8.53958 7.45189 7.67892C8.31189 6.81825 9.13019 6.2855 10.2801 5.84081C11.1456 5.50347 12.449 5.10439 14.8463 4.99548C17.4381 4.87635 18.2167 4.85256 24.78 4.85256C31.3433 4.85256 32.1226 4.87831 34.7166 4.99548C37.1139 5.10459 38.4147 5.50661 39.2827 5.84081C40.4307 6.2855 41.2498 6.81943 42.111 7.67892C42.9722 8.5384 43.5033 9.35817 43.9502 10.5055C44.2877 11.3705 44.6871 12.673 44.796 15.0689C44.9152 17.6613 44.939 18.4372 44.939 24.9995C44.939 31.5619 44.9152 32.3378 44.796 34.9302C44.6869 37.326 44.2856 38.6282 43.9502 39.4936C43.5033 40.6409 42.971 41.4595 42.111 42.3182C41.251 43.1769 40.4307 43.7097 39.2827 44.1563C38.4172 44.4937 37.1139 44.8927 34.7166 45.0016C32.1248 45.1208 31.3462 45.1446 24.78 45.1446C18.2137 45.1446 17.4373 45.1208 14.8463 45.0016ZM14.6427 0.574599C12.0251 0.693731 10.2365 1.10853 8.67442 1.71599C7.05671 2.34331 5.68724 3.1849 4.31875 4.55041C2.95026 5.91591 2.11033 7.28672 1.48264 8.90346C0.874812 10.4656 0.459761 12.2522 0.340557 14.8682C0.219386 17.4883 0.19165 18.326 0.19165 24.9993C0.19165 31.6727 0.219386 32.5104 0.340557 35.1305C0.459761 37.7467 0.874812 39.5331 1.48264 41.0952C2.11033 42.711 2.95046 44.0834 4.31875 45.4483C5.68704 46.8132 7.05671 47.6536 8.67442 48.2827C10.2394 48.8902 12.0251 49.305 14.6427 49.4241C17.2658 49.5432 18.1026 49.5729 24.78 49.5729C31.4574 49.5729 32.2955 49.5452 34.9172 49.4241C37.535 49.305 39.3225 48.8902 40.8855 48.2827C42.5022 47.6536 43.8727 46.8138 45.2412 45.4483C46.6097 44.0828 47.4478 42.711 48.0773 41.0952C48.6851 39.5331 49.1021 37.7465 49.2194 35.1305C49.3386 32.5084 49.3663 31.6727 49.3663 24.9993C49.3663 18.326 49.3386 17.4883 49.2194 14.8682C49.1002 12.252 48.6851 10.4646 48.0773 8.90346C47.4478 7.2877 46.6075 5.91807 45.2412 4.55041C43.8748 3.18274 42.5022 2.34331 40.8875 1.71599C39.3225 1.10853 37.5348 0.691766 34.9192 0.574599C32.2975 0.455466 31.4593 0.425781 24.7819 0.425781C18.1045 0.425781 17.2658 0.4535 14.6427 0.574599Z" fill="url(#paint0_radial_274_266)"/>
<path d="M16.5852 24.9993C16.5852 20.4756 20.2535 16.8075 24.78 16.8075C29.3064 16.8075 32.9767 20.4756 32.9767 24.9993C32.9767 29.523 29.3064 33.1912 24.78 33.1912C20.2535 33.1912 16.5852 29.523 16.5852 24.9993ZM12.1542 24.9993C12.1542 31.9684 17.8067 37.6176 24.78 37.6176C31.7532 37.6176 37.4058 31.9684 37.4058 24.9993C37.4058 18.0303 31.7532 12.3811 24.78 12.3811C17.8067 12.3811 12.1542 18.0303 12.1542 24.9993ZM34.955 11.8808C34.9548 12.464 35.1276 13.0342 35.4516 13.5193C35.7756 14.0043 36.2363 14.3825 36.7754 14.6059C37.3144 14.8293 37.9077 14.8879 38.4801 14.7744C39.0525 14.6608 39.5783 14.3802 39.9911 13.9679C40.404 13.5557 40.6852 13.0304 40.7993 12.4584C40.9133 11.8865 40.8551 11.2935 40.632 10.7546C40.4089 10.2157 40.0309 9.75499 39.5458 9.43077C39.0607 9.10656 38.4903 8.93338 37.9068 8.93315H37.9056C37.1234 8.93351 36.3733 9.24415 35.82 9.79683C35.2668 10.3495 34.9557 11.099 34.955 11.8808ZM14.8463 45.0016C12.449 44.8925 11.146 44.4935 10.2801 44.1563C9.13216 43.7097 8.31307 43.1777 7.45189 42.3182C6.59071 41.4587 6.05763 40.6409 5.61268 39.4936C5.27514 38.6286 4.87582 37.326 4.76685 34.9302C4.64764 32.34 4.62384 31.5619 4.62384 24.9995C4.62384 18.4372 4.64961 17.6613 4.76685 15.0689C4.87602 12.673 5.27828 11.373 5.61268 10.5055C6.0596 9.35817 6.59189 8.53958 7.45189 7.67892C8.31189 6.81825 9.13019 6.2855 10.2801 5.84081C11.1456 5.50347 12.449 5.10439 14.8463 4.99548C17.4381 4.87635 18.2167 4.85256 24.78 4.85256C31.3433 4.85256 32.1226 4.87831 34.7166 4.99548C37.1139 5.10459 38.4147 5.50661 39.2827 5.84081C40.4307 6.2855 41.2498 6.81943 42.111 7.67892C42.9722 8.5384 43.5033 9.35817 43.9502 10.5055C44.2877 11.3705 44.6871 12.673 44.796 15.0689C44.9152 17.6613 44.939 18.4372 44.939 24.9995C44.939 31.5619 44.9152 32.3378 44.796 34.9302C44.6869 37.326 44.2856 38.6282 43.9502 39.4936C43.5033 40.6409 42.971 41.4595 42.111 42.3182C41.251 43.1769 40.4307 43.7097 39.2827 44.1563C38.4172 44.4937 37.1139 44.8927 34.7166 45.0016C32.1248 45.1208 31.3462 45.1446 24.78 45.1446C18.2137 45.1446 17.4373 45.1208 14.8463 45.0016ZM14.6427 0.574599C12.0251 0.693731 10.2365 1.10853 8.67442 1.71599C7.05671 2.34331 5.68724 3.1849 4.31875 4.55041C2.95026 5.91591 2.11033 7.28672 1.48264 8.90346C0.874812 10.4656 0.459761 12.2522 0.340557 14.8682C0.219386 17.4883 0.19165 18.326 0.19165 24.9993C0.19165 31.6727 0.219386 32.5104 0.340557 35.1305C0.459761 37.7467 0.874812 39.5331 1.48264 41.0952C2.11033 42.711 2.95046 44.0834 4.31875 45.4483C5.68704 46.8132 7.05671 47.6536 8.67442 48.2827C10.2394 48.8902 12.0251 49.305 14.6427 49.4241C17.2658 49.5432 18.1026 49.5729 24.78 49.5729C31.4574 49.5729 32.2955 49.5452 34.9172 49.4241C37.535 49.305 39.3225 48.8902 40.8855 48.2827C42.5022 47.6536 43.8727 46.8138 45.2412 45.4483C46.6097 44.0828 47.4478 42.711 48.0773 41.0952C48.6851 39.5331 49.1021 37.7465 49.2194 35.1305C49.3386 32.5084 49.3663 31.6727 49.3663 24.9993C49.3663 18.326 49.3386 17.4883 49.2194 14.8682C49.1002 12.252 48.6851 10.4646 48.0773 8.90346C47.4478 7.2877 46.6075 5.91807 45.2412 4.55041C43.8748 3.18274 42.5022 2.34331 40.8875 1.71599C39.3225 1.10853 37.5348 0.691766 34.9192 0.574599C32.2975 0.455466 31.4593 0.425781 24.7819 0.425781C18.1045 0.425781 17.2658 0.4535 14.6427 0.574599Z" fill="url(#paint1_radial_274_266)"/>
<defs>
<radialGradient id="paint0_radial_274_266" cx="0" cy="0" r="1" gradientUnits="userSpaceOnUse" gradientTransform="translate(6.72506 49.8051) scale(64.1959 64.1575)">
<stop offset="0.09" stop-color="#FA8F21"/>
<stop offset="0.78" stop-color="#D82D7E"/>
</radialGradient>
<radialGradient id="paint1_radial_274_266" cx="0" cy="0" r="1" gradientUnits="userSpaceOnUse" gradientTransform="translate(30.0151 52.0069) scale(50.5953 50.5649)">
<stop offset="0.64" stop-color="#8C3AAA" stop-opacity="0"/>
<stop offset="1" stop-color="#8C3AAA"/>
</radialGradient>
</defs>
</svg>
