<svg width="48" height="48" viewBox="0 0 48 48" fill="none" xmlns="http://www.w3.org/2000/svg">
<path d="M24 48C37.2548 48 48 37.2548 48 24C48 10.7452 37.2548 0 24 0C10.7452 0 0 10.7452 0 24C0 37.2548 10.7452 48 24 48Z" fill="#34AADF"/>
<path d="M10.2883 23.4749C10.2883 23.4749 22.1767 18.4172 26.2998 16.6362C27.8804 15.9239 33.2404 13.6443 33.2404 13.6443C33.2404 13.6443 35.7144 12.6471 35.5082 15.069C35.4394 16.0664 34.8897 19.5569 34.34 23.3324C33.5153 28.6752 32.622 34.5165 32.622 34.5165C32.622 34.5165 32.4845 36.155 31.3163 36.4399C30.1481 36.7248 28.2239 35.4426 27.8804 35.1576C27.6054 34.944 22.7265 31.7383 20.9398 30.1711C20.4587 29.7437 19.909 28.8889 21.0084 27.8916C23.4824 25.5408 26.4372 22.6201 28.2239 20.768C29.0486 19.9131 29.8732 17.9185 26.4372 20.3405C21.5582 23.8311 16.7479 27.108 16.7479 27.108C16.7479 27.108 15.6484 27.8203 13.5869 27.1791C11.5252 26.5381 9.12005 25.6832 9.12005 25.6832C9.12005 25.6832 7.4709 24.6147 10.2883 23.4749Z" fill="#F5F5F5"/>
</svg>
