<svg width="48" height="48" viewBox="0 0 48 48" fill="none" xmlns="http://www.w3.org/2000/svg">
<path d="M1.5 46.5L4.72865 34.5058C2.12482 29.8334 1.29756 24.3812 2.39867 19.1495C3.49977 13.9179 6.45539 9.25778 10.7231 6.02434C14.9909 2.7909 20.2845 1.20102 25.6327 1.54645C30.9808 1.89188 36.0246 4.14944 39.8387 7.90488C43.6527 11.6603 45.9811 16.6617 46.3966 21.9913C46.8121 27.3209 45.2868 32.6212 42.1006 36.9196C38.9144 41.218 34.2811 44.2261 29.0508 45.392C23.8205 46.5579 18.3441 45.8034 13.6265 43.2669L1.5 46.5ZM14.2112 38.7786L14.9612 39.2223C18.3782 41.2425 22.3693 42.0785 26.3124 41.6C30.2555 41.1215 33.9291 39.3554 36.7609 36.5769C39.5926 33.7985 41.4234 30.1637 41.9678 26.239C42.5123 22.3143 41.7399 18.3202 39.771 14.8791C37.802 11.438 34.7472 8.74324 31.0825 7.2147C27.4179 5.68617 23.3492 5.40974 19.5106 6.4285C15.6719 7.44727 12.279 9.70399 9.86047 12.847C7.44194 15.99 6.13369 19.8427 6.13959 23.8048C6.13638 27.09 7.04725 30.3116 8.77081 33.1111L9.24113 33.8845L7.43613 40.579L14.2112 38.7786Z" fill="#00D95F"/>
<path fill-rule="evenodd" clip-rule="evenodd" d="M32.4134 26.8848C31.9737 26.5311 31.459 26.2821 30.9083 26.1569C30.3576 26.0316 29.7855 26.0334 29.2356 26.1621C28.4094 26.5044 27.8755 27.7977 27.3416 28.4443C27.229 28.5993 27.0636 28.708 26.8764 28.75C26.6892 28.792 26.493 28.7645 26.3247 28.6725C23.2999 27.4908 20.7644 25.3237 19.1302 22.5232C18.9908 22.3485 18.9248 22.1266 18.9461 21.9043C18.9675 21.682 19.0745 21.4766 19.2446 21.3314C19.84 20.7435 20.2772 20.0152 20.5157 19.2141C20.5686 18.3304 20.3657 17.4501 19.931 16.6783C19.5949 15.5962 18.9554 14.6327 18.0878 13.9016C17.6404 13.7009 17.1443 13.6336 16.6594 13.7078C16.1745 13.7821 15.7214 13.9947 15.3549 14.32C14.7187 14.8675 14.2137 15.5504 13.8771 16.3184C13.5405 17.0864 13.381 17.92 13.4101 18.7576C13.4121 19.228 13.4719 19.6964 13.5881 20.1523C13.8832 21.2476 14.3372 22.2941 14.9355 23.2586C15.3671 23.9974 15.8381 24.7127 16.3464 25.4013C17.9983 27.6632 20.0747 29.5837 22.4605 31.0561C23.6577 31.8044 24.9372 32.4127 26.2739 32.8692C27.6623 33.497 29.1953 33.738 30.7101 33.5665C31.5731 33.4362 32.3908 33.0964 33.0913 32.5768C33.7917 32.0572 34.3533 31.3739 34.7268 30.587C34.9463 30.1116 35.0129 29.5802 34.9175 29.0655C34.6887 28.0132 33.2777 27.3919 32.4134 26.8848Z" fill="#00D95F"/>
</svg>
