<svg width="48" height="48" viewBox="0 0 48 48" fill="none" xmlns="http://www.w3.org/2000/svg">
<path d="M0 3.43837C0 1.5405 1.58888 0 3.5475 0H44.4525C46.4119 0 48 1.5405 48 3.43837V44.5622C48 46.4606 46.4119 48 44.4525 48H3.5475C1.58906 48 0 46.4608 0 44.5628V3.43781V3.43837Z" fill="#006699"/>
<path d="M14.5863 40.1697V18.5599H7.4036V40.1697H14.5871H14.5863ZM10.9965 15.61C13.5007 15.61 15.0598 13.9506 15.0598 11.8769C15.0129 9.75588 13.5007 8.14282 11.0441 8.14282C8.58579 8.14282 6.98022 9.75588 6.98022 11.8767C6.98022 13.9504 8.53872 15.6098 10.9494 15.6098H10.9959L10.9965 15.61ZM18.5621 40.1697H25.7443V28.1031C25.7443 27.4581 25.7912 26.8115 25.9809 26.3508C26.4999 25.0598 27.6817 23.7235 29.6664 23.7235C32.2648 23.7235 33.3049 25.705 33.3049 28.6103V40.1697H40.4869V27.7793C40.4869 21.142 36.9439 18.0533 32.2183 18.0533C28.344 18.0533 26.6424 20.2188 25.697 21.6936H25.7449V18.5607H18.5625C18.6562 20.5879 18.5619 40.1705 18.5619 40.1705L18.5621 40.1697Z" fill="#F5F5F5"/>
</svg>
